<svg width="94" height="17" viewBox="0 0 94 17" fill="none" xmlns="http://www.w3.org/2000/svg">
<path d="M5.68977 12.2616C8.5701 12.2616 10.3216 10.7566 10.3216 8.36926C10.3216 6.73449 9.32261 5.61868 7.25968 5.16458L5.23567 4.71048C4.47018 4.52883 4.06797 4.28232 4.06797 3.82821C4.06797 3.37411 4.44423 3.08867 5.36541 3.08867C6.43322 3.12589 7.45346 3.53951 8.24574 4.25637L9.94538 1.76528C8.60817 0.829848 6.99456 0.372734 5.36541 0.467837C2.66673 0.467837 0.85031 1.76528 0.85031 4.06175C0.832606 4.87694 1.12134 5.6691 1.65946 6.28169C2.19758 6.89428 2.94592 7.28272 3.75658 7.37023L5.76762 7.85029C6.76665 8.07085 7.06506 8.36927 7.06506 8.7585C7.06506 9.14773 6.66286 9.52399 5.76762 9.52399C4.49875 9.49909 3.27648 9.04131 2.30344 8.22654L0.5 10.6398C1.98464 11.7753 3.82275 12.3497 5.68977 12.2616Z" fill="white"/>
<path d="M13.6813 4.29421C14.0719 4.2942 14.4537 4.1782 14.7783 3.96092C15.1028 3.74364 15.3556 3.43487 15.5045 3.07376C15.6534 2.71265 15.6916 2.31546 15.6145 1.93255C15.5373 1.54965 15.3482 1.19828 15.0711 0.923003C14.794 0.647722 14.4414 0.460923 14.058 0.386301C13.6746 0.311678 13.2777 0.352592 12.9175 0.503848C12.5574 0.655104 12.2503 0.909892 12.0352 1.23591C11.8201 1.56192 11.7066 1.94447 11.7092 2.33506C11.7056 2.59442 11.7543 2.85183 11.8523 3.09198C11.9504 3.33212 12.0957 3.55008 12.2797 3.73288C12.4637 3.91569 12.6827 4.05959 12.9234 4.15602C13.1642 4.25246 13.422 4.29945 13.6813 4.29421Z" fill="white"/>
<path d="M11.5547 12.0001H15.8103L14.9151 4.95502C14.1109 5.16266 13.2671 5.16266 12.4629 4.95502L11.5547 12.0001Z" fill="white"/>
<path d="M17.8066 12H21.2578V5.90197C21.2578 4.40991 21.9844 3.48873 23.3856 3.48873C24.7869 3.48873 25.4226 4.25422 25.4226 5.90197V12H28.8219V5.04566C28.8219 2.00964 27.3039 0.452711 24.709 0.452711C24.0331 0.42332 23.361 0.567702 22.7568 0.872075C22.1526 1.17645 21.6365 1.63065 21.2578 2.19129V1.46472C21.2679 1.35829 21.2543 1.25096 21.218 1.15039C21.1818 1.04981 21.1238 0.958474 21.0482 0.882884C20.9726 0.807295 20.8813 0.749319 20.7807 0.713087C20.6802 0.676855 20.5728 0.66326 20.4664 0.673274H17.8715L17.8066 12Z" fill="white"/>
<path d="M39.9409 0.674738C39.8344 0.664724 39.7271 0.678319 39.6265 0.714551C39.526 0.750783 39.4346 0.808759 39.359 0.884348C39.2835 0.959938 39.2255 1.05128 39.1892 1.15185C39.153 1.25242 39.1394 1.35975 39.1494 1.46618V2.15382C38.7719 1.59777 38.2567 1.14897 37.6542 0.851118C37.0517 0.553265 36.3823 0.416513 35.7112 0.454175C34.3144 0.588583 33.0178 1.23852 32.0742 2.27721C31.1307 3.3159 30.6079 4.66884 30.6079 6.0721C30.6079 7.47536 31.1307 8.8283 32.0742 9.86699C33.0178 10.9057 34.3144 11.5556 35.7112 11.69C36.3602 11.7309 37.0097 11.6183 37.6071 11.3614C38.2044 11.1044 38.7328 10.7103 39.1494 10.2109V10.9635C39.1502 11.3189 39.0779 11.6707 38.9371 11.997C38.7963 12.3234 38.5899 12.6173 38.3308 12.8606C38.0717 13.1039 37.7653 13.2914 37.4308 13.4114C37.0962 13.5314 36.7406 13.5815 36.3859 13.5583C35.1119 13.5831 33.8768 13.1188 32.9347 12.2609L31.1572 14.8558C32.6715 16.0002 34.5426 16.5703 36.4378 16.4646C39.8371 16.4646 42.6006 14.765 42.6006 10.4964V0.674738H39.9409ZM36.6194 8.69294C36.1062 8.69294 35.6045 8.54075 35.1778 8.25562C34.751 7.97049 34.4185 7.56522 34.2221 7.09107C34.0257 6.61692 33.9743 6.09517 34.0744 5.59181C34.1745 5.08845 34.4217 4.62609 34.7846 4.26319C35.1475 3.90029 35.6098 3.65315 36.1132 3.55302C36.6165 3.4529 37.1383 3.50429 37.6124 3.70069C38.0866 3.89709 38.4919 4.22968 38.777 4.65641C39.0621 5.08314 39.2143 5.58483 39.2143 6.09805C39.2143 6.78626 38.9409 7.44628 38.4543 7.93291C37.9676 8.41955 37.3076 8.69294 36.6194 8.69294Z" fill="white"/>
<path d="M52.0999 0.453141C51.4077 0.422493 50.7186 0.561297 50.0922 0.857498C49.4659 1.1537 48.9214 1.59834 48.506 2.15279V1.46514C48.516 1.35872 48.5024 1.25139 48.4661 1.15082C48.4299 1.05024 48.3719 0.958903 48.2963 0.883314C48.2208 0.807724 48.1294 0.749749 48.0288 0.713516C47.9283 0.677284 47.8209 0.663689 47.7145 0.673704H45.1196V16.1522H48.506V10.7548C48.9569 11.2552 49.513 11.6497 50.1344 11.9099C50.7557 12.1701 51.4269 12.2896 52.0999 12.2599C52.842 12.2409 53.5725 12.0712 54.247 11.7612C54.9216 11.4511 55.526 11.007 56.0235 10.4561C56.5211 9.90513 56.9014 9.25874 57.1414 8.55621C57.3813 7.85369 57.4759 7.1097 57.4194 6.36948C57.4796 5.62718 57.3878 4.8804 57.1495 4.17482C56.9112 3.46923 56.5315 2.81967 56.0336 2.26587C55.5357 1.71207 54.93 1.26567 54.2536 0.953986C53.5772 0.642299 52.8444 0.471878 52.0999 0.453141ZM51.1917 9.23683C50.6119 9.26014 50.0384 9.10937 49.5451 8.80395C49.0518 8.49852 48.6611 8.05241 48.4235 7.52306C48.1859 6.99371 48.1122 6.40536 48.2118 5.83375C48.3115 5.26213 48.58 4.73344 48.9827 4.31573C49.3854 3.89802 49.904 3.61042 50.4715 3.48995C51.0391 3.36949 51.6298 3.42168 52.1675 3.63981C52.7051 3.85793 53.1652 4.232 53.4884 4.71386C53.8117 5.19572 53.9833 5.7633 53.9812 6.34353C54.0008 6.71987 53.9428 7.09622 53.8109 7.44923C53.679 7.80225 53.476 8.1244 53.2145 8.39569C52.9529 8.66699 52.6384 8.88164 52.2904 9.02633C51.9424 9.17102 51.5685 9.24267 51.1917 9.23683Z" fill="white"/>
<path d="M68.6416 0.674122C68.5352 0.664107 68.4279 0.677702 68.3273 0.713935C68.2267 0.750167 68.1354 0.808143 68.0598 0.883732C67.9842 0.959321 67.9262 1.05066 67.89 1.15123C67.8537 1.25181 67.8402 1.35913 67.8502 1.46556V2.15321C67.4285 1.58934 66.8735 1.1389 66.235 0.842271C65.5964 0.545638 64.8942 0.41208 64.1914 0.453559C63.4492 0.472514 62.7187 0.642188 62.0442 0.952276C61.3697 1.26236 60.7653 1.70638 60.2677 2.25734C59.7702 2.8083 59.3898 3.45469 59.1499 4.15721C58.9099 4.85974 58.8153 5.60373 58.8719 6.34395C58.8153 7.08417 58.9099 7.82816 59.1499 8.53068C59.3898 9.23321 59.7702 9.87959 60.2677 10.4306C60.7653 10.9815 61.3697 11.4255 62.0442 11.7356C62.7187 12.0457 63.4492 12.2154 64.1914 12.2343C64.8938 12.2724 65.5948 12.1373 66.2328 11.8409C66.8707 11.5445 67.4262 11.096 67.8502 10.5347V12.0008H71.2495V0.674122H68.6416ZM65.0996 9.23724C64.364 9.18801 63.6747 8.8611 63.1711 8.3227C62.6675 7.7843 62.3874 7.07466 62.3874 6.33746C62.3874 5.60027 62.6675 4.89062 63.1711 4.35222C63.6747 3.81382 64.364 3.48691 65.0996 3.43768C65.8351 3.48691 66.5245 3.81382 67.0281 4.35222C67.5316 4.89062 67.8118 5.60027 67.8118 6.33746C67.8118 7.07466 67.5316 7.7843 67.0281 8.3227C66.5245 8.8611 65.8351 9.18801 65.0996 9.23724Z" fill="white"/>
<path d="M78.127 12.2607C81.0073 12.2607 82.7589 10.7556 82.7589 8.36835C82.7589 6.73357 81.7598 5.61777 79.6969 5.16366L77.6859 4.70956C76.9074 4.52792 76.5052 4.2814 76.5052 3.8273C76.5052 3.37319 76.8814 3.08776 77.8026 3.08776C78.8704 3.12498 79.8907 3.53859 80.683 4.25546L82.3826 1.76436C81.0454 0.828933 79.4318 0.371819 77.8026 0.466921C75.1039 0.466921 73.2875 1.76437 73.2875 4.06084C73.2698 4.87602 73.5586 5.66819 74.0967 6.28078C74.6348 6.89337 75.3831 7.2818 76.1938 7.36932L78.2048 7.84937C79.2039 8.06994 79.5023 8.36835 79.5023 8.75759C79.5023 9.14682 79.0871 9.52307 78.2048 9.52307C76.936 9.49817 75.7137 9.0404 74.7407 8.22563L73.041 10.7167C74.5292 11.843 76.3669 12.4081 78.2308 12.3126L78.127 12.2607Z" fill="white"/>
<path d="M88.8682 12.2614C91.7485 12.2614 93.5001 10.7564 93.5001 8.36911C93.5001 6.73434 92.501 5.61853 90.4381 5.16443L88.4141 4.71033C87.6486 4.52868 87.2464 4.28217 87.2464 3.82806C87.2464 3.37396 87.6227 3.08852 88.5438 3.08852C89.6081 3.1243 90.6247 3.53832 91.4112 4.25622L93.1108 1.76513C91.7799 0.826909 90.1693 0.369365 88.5438 0.467686C85.8452 0.467686 84.0287 1.76513 84.0287 4.0616C84.011 4.87679 84.2998 5.66895 84.8379 6.28154C85.376 6.89413 86.1243 7.28257 86.935 7.37008L88.946 7.85013C89.9451 8.0707 90.2435 8.36912 90.2435 8.75835C90.2435 9.14758 89.8413 9.52384 88.946 9.52384C87.6772 9.49894 86.4549 9.04116 85.4819 8.22639L83.7822 10.7175C85.2704 11.8437 87.1082 12.4089 88.972 12.3133L88.8682 12.2614Z" fill="white"/>
</svg>
